<mxfile host="app.diagrams.net" modified="2022-09-18T18:29:00.253Z" agent="5.0 (Windows)" etag="3VJ2QXbWTbBiAktA9bHm" version="20.3.2" type="github">
  <diagram id="QiAb3cVUFF8eKRVJWAec" name="Page-1">
    <mxGraphModel dx="1240" dy="684" grid="1" gridSize="10" guides="1" tooltips="1" connect="1" arrows="1" fold="1" page="1" pageScale="1" pageWidth="827" pageHeight="1169" math="0" shadow="0">
      <root>
        <mxCell id="0" />
        <mxCell id="1" parent="0" />
        <mxCell id="fyopw6KHprwO9D4uZJlm-2" value="&lt;h1&gt;&lt;font face=&quot;Tahoma&quot;&gt;Reduce&lt;/font&gt;&lt;/h1&gt;" style="text;html=1;resizable=0;autosize=1;align=center;verticalAlign=middle;points=[];rounded=0;strokeWidth=7;fontSize=37;fillColor=#f5f5f5;fontColor=#333333;strokeColor=#666666;" vertex="1" parent="1">
          <mxGeometry x="10" y="520" width="300" height="210" as="geometry" />
        </mxCell>
        <mxCell id="fyopw6KHprwO9D4uZJlm-3" value="" style="shape=callout;whiteSpace=wrap;html=1;perimeter=calloutPerimeter;strokeWidth=7;fontSize=37;" vertex="1" parent="1">
          <mxGeometry x="110" y="340" width="240" height="130" as="geometry" />
        </mxCell>
        <mxCell id="fyopw6KHprwO9D4uZJlm-4" value="&lt;font style=&quot;font-size: 25px;&quot;&gt;Two Parameters&lt;/font&gt;" style="text;html=1;resizable=0;autosize=1;align=center;verticalAlign=middle;points=[];fillColor=none;strokeColor=none;rounded=0;strokeWidth=7;fontSize=37;" vertex="1" parent="1">
          <mxGeometry x="120" y="350" width="210" height="60" as="geometry" />
        </mxCell>
        <mxCell id="fyopw6KHprwO9D4uZJlm-5" value="" style="ellipse;whiteSpace=wrap;html=1;aspect=fixed;strokeWidth=7;fontSize=37;" vertex="1" parent="1">
          <mxGeometry x="440" y="500" width="330" height="330" as="geometry" />
        </mxCell>
        <mxCell id="fyopw6KHprwO9D4uZJlm-6" value="" style="shape=flexArrow;endArrow=classic;html=1;rounded=0;fontSize=37;entryX=0;entryY=0.429;entryDx=0;entryDy=0;entryPerimeter=0;fillColor=#67AB9F;" edge="1" parent="1" source="fyopw6KHprwO9D4uZJlm-4" target="fyopw6KHprwO9D4uZJlm-5">
          <mxGeometry width="50" height="50" relative="1" as="geometry">
            <mxPoint x="370" y="610" as="sourcePoint" />
            <mxPoint x="420" y="560" as="targetPoint" />
          </mxGeometry>
        </mxCell>
        <mxCell id="fyopw6KHprwO9D4uZJlm-7" value="&lt;font style=&quot;font-size: 20px;&quot;&gt;Callback Function&lt;br&gt;&lt;/font&gt;" style="text;html=1;align=center;verticalAlign=middle;resizable=0;points=[];autosize=1;strokeColor=#666666;fillColor=#f5f5f5;fontSize=37;fontColor=#333333;" vertex="1" parent="1">
          <mxGeometry x="515" y="580" width="180" height="60" as="geometry" />
        </mxCell>
        <mxCell id="fyopw6KHprwO9D4uZJlm-8" value="&lt;font style=&quot;font-size: 20px;&quot;&gt;Initial Value Previous Value&lt;br&gt;&lt;/font&gt;" style="text;html=1;align=center;verticalAlign=middle;resizable=0;points=[];autosize=1;strokeColor=#666666;fillColor=#f5f5f5;fontSize=37;fontColor=#333333;" vertex="1" parent="1">
          <mxGeometry x="490" y="680" width="260" height="60" as="geometry" />
        </mxCell>
        <mxCell id="fyopw6KHprwO9D4uZJlm-11" value="" style="shape=flexArrow;endArrow=classic;html=1;rounded=0;fontSize=20;fillColor=#67AB9F;" edge="1" parent="1" source="fyopw6KHprwO9D4uZJlm-7">
          <mxGeometry width="50" height="50" relative="1" as="geometry">
            <mxPoint x="660" y="440" as="sourcePoint" />
            <mxPoint x="591" y="350" as="targetPoint" />
          </mxGeometry>
        </mxCell>
        <mxCell id="fyopw6KHprwO9D4uZJlm-12" value="" style="shape=parallelogram;perimeter=parallelogramPerimeter;whiteSpace=wrap;html=1;fixedSize=1;strokeWidth=7;fontSize=20;" vertex="1" parent="1">
          <mxGeometry x="359.5" y="130" width="471" height="200" as="geometry" />
        </mxCell>
        <mxCell id="fyopw6KHprwO9D4uZJlm-13" value="&lt;div&gt;&lt;font style=&quot;font-size: 20px;&quot;&gt;Two Parameters&lt;/font&gt;&lt;/div&gt;&lt;div&gt;&lt;font style=&quot;font-size: 20px;&quot; face=&quot;Comic Sans MS&quot;&gt;1. previousReturn Value&lt;/font&gt;&lt;/div&gt;&lt;div&gt;&lt;font style=&quot;font-size: 20px;&quot;&gt;&lt;font face=&quot;Comic Sans MS&quot;&gt;2. Current Value&lt;/font&gt;&lt;br&gt;&lt;/font&gt;&lt;/div&gt;" style="text;html=1;align=center;verticalAlign=middle;resizable=0;points=[];autosize=1;strokeColor=none;fillColor=none;fontSize=37;" vertex="1" parent="1">
          <mxGeometry x="475" y="155" width="240" height="150" as="geometry" />
        </mxCell>
        <mxCell id="fyopw6KHprwO9D4uZJlm-14" value="" style="shape=flexArrow;endArrow=classic;html=1;rounded=0;fontFamily=Comic Sans MS;fontSize=25;fillColor=#67AB9F;exitX=0.467;exitY=1;exitDx=0;exitDy=0;exitPerimeter=0;" edge="1" parent="1" source="fyopw6KHprwO9D4uZJlm-2">
          <mxGeometry width="50" height="50" relative="1" as="geometry">
            <mxPoint x="400" y="840" as="sourcePoint" />
            <mxPoint x="250" y="860" as="targetPoint" />
          </mxGeometry>
        </mxCell>
        <mxCell id="fyopw6KHprwO9D4uZJlm-15" value="&lt;div style=&quot;color: rgb(225, 228, 232); background-color: rgb(36, 41, 46); font-family: Consolas, &amp;quot;Courier New&amp;quot;, monospace; font-weight: normal; font-size: 20px; line-height: 19px;&quot; align=&quot;left&quot;&gt;&lt;div&gt;&lt;span style=&quot;color: #c74ded;&quot;&gt;const&lt;/span&gt;&lt;span style=&quot;color: #e1e4e8;&quot;&gt; &lt;/span&gt;&lt;span style=&quot;color: #00e8c6;&quot;&gt;reduceTotalNumbers&lt;/span&gt;&lt;span style=&quot;color: #e1e4e8;&quot;&gt; &lt;/span&gt;&lt;span style=&quot;color: #00e8c6;&quot;&gt;=&lt;/span&gt;&lt;span style=&quot;color: #e1e4e8;&quot;&gt; &lt;/span&gt;&lt;span style=&quot;color: #00e8c6;&quot;&gt;numbers&lt;/span&gt;&lt;span style=&quot;color: #e1e4e8;&quot;&gt;.&lt;/span&gt;&lt;span style=&quot;color: #ffe66d;&quot;&gt;reduce&lt;/span&gt;&lt;span style=&quot;color: #e1e4e8;&quot;&gt;((&lt;/span&gt;&lt;span style=&quot;color: #00e8c6;&quot;&gt;accumulator&lt;/span&gt;&lt;span style=&quot;color: #e1e4e8;&quot;&gt;, &lt;/span&gt;&lt;span style=&quot;color: #00e8c6;&quot;&gt;currentValue&lt;/span&gt;&lt;span style=&quot;color: #e1e4e8;&quot;&gt;) &lt;/span&gt;&lt;span style=&quot;color: #c74ded;&quot;&gt;=&amp;gt;&lt;/span&gt;&lt;span style=&quot;color: #e1e4e8;&quot;&gt;{&lt;/span&gt;&lt;/div&gt;&lt;div&gt;&lt;span style=&quot;color: #e1e4e8;&quot;&gt;&amp;nbsp; &amp;nbsp; &lt;/span&gt;&lt;span style=&quot;color: #00e8c6;&quot;&gt;console&lt;/span&gt;&lt;span style=&quot;color: #e1e4e8;&quot;&gt;.&lt;/span&gt;&lt;span style=&quot;color: #ffe66d;&quot;&gt;log&lt;/span&gt;&lt;span style=&quot;color: #e1e4e8;&quot;&gt;(&lt;/span&gt;&lt;span style=&quot;color: #00e8c6;&quot;&gt;accumulator&lt;/span&gt;&lt;span style=&quot;color: #e1e4e8;&quot;&gt;, &lt;/span&gt;&lt;span style=&quot;color: #00e8c6;&quot;&gt;currentValue&lt;/span&gt;&lt;span style=&quot;color: #e1e4e8;&quot;&gt;);&lt;/span&gt;&lt;/div&gt;&lt;div&gt;&lt;span style=&quot;color: #e1e4e8;&quot;&gt;&amp;nbsp; &amp;nbsp; &lt;/span&gt;&lt;span style=&quot;color: #c74ded;&quot;&gt;return&lt;/span&gt;&lt;span style=&quot;color: #e1e4e8;&quot;&gt; &lt;/span&gt;&lt;span style=&quot;color: #00e8c6;&quot;&gt;accumulator&lt;/span&gt;&lt;span style=&quot;color: #e1e4e8;&quot;&gt; &lt;/span&gt;&lt;span style=&quot;color: #00e8c6;&quot;&gt;+&lt;/span&gt;&lt;span style=&quot;color: #e1e4e8;&quot;&gt; &lt;/span&gt;&lt;span style=&quot;color: #00e8c6;&quot;&gt;currentValue&lt;/span&gt;&lt;span style=&quot;color: #e1e4e8;&quot;&gt;;&lt;/span&gt;&lt;/div&gt;&lt;div&gt;&lt;span style=&quot;color: #e1e4e8;&quot;&gt;},&lt;/span&gt;&lt;span style=&quot;color: #f39c12;&quot;&gt;0&lt;/span&gt;&lt;span style=&quot;color: #e1e4e8;&quot;&gt;);&lt;/span&gt;&lt;/div&gt;&lt;div&gt;&lt;span style=&quot;color: #00e8c6;&quot;&gt;console&lt;/span&gt;&lt;span style=&quot;color: #e1e4e8;&quot;&gt;.&lt;/span&gt;&lt;span style=&quot;color: #ffe66d;&quot;&gt;log&lt;/span&gt;&lt;span style=&quot;color: #e1e4e8;&quot;&gt;(&lt;/span&gt;&lt;span style=&quot;color: #00e8c6;&quot;&gt;reduceTotalNumbers&lt;/span&gt;&lt;span style=&quot;color: #e1e4e8;&quot;&gt;);&lt;/span&gt;&lt;/div&gt;&lt;/div&gt;" style="text;html=1;align=left;verticalAlign=middle;resizable=0;points=[];autosize=1;strokeColor=none;fillColor=none;fontSize=25;fontFamily=Comic Sans MS;" vertex="1" parent="1">
          <mxGeometry x="10" y="910" width="830" height="110" as="geometry" />
        </mxCell>
      </root>
    </mxGraphModel>
  </diagram>
</mxfile>
